<?xml version="1.0" standalone="no"?>
<!DOCTYPE svg PUBLIC "-//W3C//DTD SVG 20010904//EN"
 "http://www.w3.org/TR/2001/REC-SVG-20010904/DTD/svg10.dtd">
<svg version="1.0" xmlns="http://www.w3.org/2000/svg"
 width="128.000000pt" height="128.000000pt" viewBox="0 0 128.000000 128.000000"
 preserveAspectRatio="xMidYMid meet">
<metadata>
Created by potrace 1.11, written by Peter Selinger 2001-2013
</metadata>
<g transform="translate(0.000000,128.000000) scale(0.100000,-0.100000)"
fill="#000000" stroke="none">
<path d="M555 1205 c-297 -44 -481 -183 -541 -409 -16 -62 -20 -726 -4 -726
13 -1 855 -1 918 0 l47 0 0 333 0 332 -35 2 c-19 0 -38 2 -42 2 -5 1 -8 12 -8
26 0 16 6 25 16 25 56 0 109 77 93 135 -10 36 -61 85 -89 85 -18 0 -20 7 -19
96 0 53 -2 98 -5 102 -12 11 -250 9 -331 -3z"/>
<path d="M1126 1143 c-5 -11 5 -28 28 -52 105 -107 102 -284 -6 -390 -33 -33
-34 -70 -1 -52 76 41 132 160 128 271 -2 82 -50 174 -114 219 -26 19 -30 19
-35 4z"/>
<path d="M1075 1060 c-4 -6 2 -20 14 -31 73 -68 77 -177 10 -254 -36 -41 -30
-68 8 -33 58 54 81 149 54 229 -14 43 -75 106 -86 89z"/>
<path d="M1030 990 c0 -6 4 -10 9 -10 12 0 34 -55 34 -85 0 -13 -10 -40 -22
-60 -25 -43 -27 -52 -5 -34 42 35 56 107 29 158 -14 28 -45 49 -45 31z"/>
</g>
</svg>
